<svg width="53" height="51" viewBox="0 0 53 51" fill="none" xmlns="http://www.w3.org/2000/svg">
<path d="M26.5 0C33.7001 0 34.5984 0.0254999 37.4233 0.153C40.2456 0.2805 42.1668 0.70635 43.8575 1.33875C45.6065 1.98645 47.0799 2.86365 48.5533 4.2789C49.9008 5.55363 50.9435 7.0956 51.6088 8.7975C52.2633 10.4218 52.7085 12.2731 52.841 14.9889C52.9656 17.7072 53 18.5716 53 25.5C53 32.4283 52.9735 33.2928 52.841 36.0111C52.7085 38.7268 52.2633 40.5756 51.6088 42.2025C50.9454 43.9053 49.9025 45.4477 48.5533 46.7211C47.2282 48.0173 45.6259 49.0206 43.8575 49.6613C42.1694 50.2911 40.2456 50.7195 37.4233 50.847C34.5984 50.9669 33.7001 51 26.5 51C19.3 51 18.4016 50.9745 15.5767 50.847C12.7544 50.7195 10.8332 50.2911 9.1425 49.6613C7.37316 49.0224 5.77045 48.0189 4.4467 46.7211C3.09893 45.4466 2.05622 43.9045 1.39125 42.2025C0.73405 40.5781 0.2915 38.7268 0.159 36.0111C0.0344499 33.2928 0 32.4283 0 25.5C0 18.5716 0.0264998 17.7072 0.159 14.9889C0.2915 12.2706 0.73405 10.4244 1.39125 8.7975C2.05438 7.09456 3.09733 5.55217 4.4467 4.2789C5.77083 2.98154 7.37344 1.97811 9.1425 1.33875C10.8332 0.70635 12.7518 0.2805 15.5767 0.153C18.4016 0.0331499 19.3 0 26.5 0ZM26.5 12.75C22.9859 12.75 19.6157 14.0933 17.1308 16.4844C14.646 18.8755 13.25 22.1185 13.25 25.5C13.25 28.8815 14.646 32.1245 17.1308 34.5156C19.6157 36.9067 22.9859 38.25 26.5 38.25C30.0141 38.25 33.3843 36.9067 35.8692 34.5156C38.354 32.1245 39.75 28.8815 39.75 25.5C39.75 22.1185 38.354 18.8755 35.8692 16.4844C33.3843 14.0933 30.0141 12.75 26.5 12.75ZM43.725 12.1125C43.725 11.2671 43.376 10.4564 42.7548 9.8586C42.1336 9.26083 41.291 8.925 40.4125 8.925C39.534 8.925 38.6914 9.26083 38.0702 9.8586C37.449 10.4564 37.1 11.2671 37.1 12.1125C37.1 12.9579 37.449 13.7686 38.0702 14.3664C38.6914 14.9642 39.534 15.3 40.4125 15.3C41.291 15.3 42.1336 14.9642 42.7548 14.3664C43.376 13.7686 43.725 12.9579 43.725 12.1125ZM26.5 17.85C28.6085 17.85 30.6306 18.656 32.1215 20.0906C33.6124 21.5253 34.45 23.4711 34.45 25.5C34.45 27.5289 33.6124 29.4747 32.1215 30.9094C30.6306 32.344 28.6085 33.15 26.5 33.15C24.3915 33.15 22.3694 32.344 20.8785 30.9094C19.3876 29.4747 18.55 27.5289 18.55 25.5C18.55 23.4711 19.3876 21.5253 20.8785 20.0906C22.3694 18.656 24.3915 17.85 26.5 17.85Z" fill="#00214D"/>
</svg>
