<svg width="49" height="50" viewBox="0 0 49 50" fill="none" xmlns="http://www.w3.org/2000/svg">
<path d="M0 3.58125C0 1.60313 1.61087 0 3.59844 0H45.4016C47.3891 0 49 1.60313 49 3.58125V46.4188C49 48.3969 47.3891 50 45.4016 50H3.59844C1.61087 50 0 48.3969 0 46.4188V3.58125ZM15.1379 41.8563V19.2781H7.78488V41.8563H15.1379ZM11.4629 16.1938C14.0262 16.1938 15.6218 14.4625 15.6218 12.2937C15.5759 10.0781 14.0293 8.39375 11.5119 8.39375C8.99456 8.39375 7.35 10.0812 7.35 12.2937C7.35 14.4625 8.94556 16.1938 11.4139 16.1938H11.4629ZM26.4937 41.8563V29.2469C26.4937 28.5719 26.5427 27.8969 26.7387 27.4156C27.2685 26.0688 28.4782 24.6719 30.5117 24.6719C33.173 24.6719 34.2357 26.7406 34.2357 29.7781V41.8563H41.5887V28.9062C41.5887 21.9688 37.9627 18.7437 33.124 18.7437C29.2224 18.7437 27.4737 20.9312 26.4937 22.4719V22.55H26.4447C26.461 22.5239 26.4773 22.4979 26.4937 22.4719V19.2781H19.1437C19.2356 21.3969 19.1437 41.8563 19.1437 41.8563H26.4937Z" fill="#00214D"/>
</svg>
