<svg width="731" height="659" viewBox="0 0 731 659" fill="none" xmlns="http://www.w3.org/2000/svg">
<path d="M191.375 628.822H271.375L347.375 427.112H506.515L632.515 203.112L670.655 224.112L649.225 96.4023L527.945 145.252L565.225 165.822L457.655 359.322H293.565L191.375 628.822Z" fill="#E6E7E8"/>
<path d="M452.227 80.6221H450.227V334.752H452.227V80.6221Z" fill="#2F2E41"/>
<path d="M502.375 141.322H500.375V357.462H502.375V141.322Z" fill="#2F2E41"/>
<path d="M553.805 187.192H551.805V351.902H553.805V187.192Z" fill="#2F2E41"/>
<path d="M660.945 209.462H658.945V364.772H660.945V209.462Z" fill="#2F2E41"/>
<path d="M606.086 242.893H604.086V485.603H606.086V242.893Z" fill="#2F2E41"/>
<path d="M716.375 151.183H714.375V367.613H716.375V151.183Z" fill="#2F2E41"/>
<path d="M354.086 52.7822H352.086V218.922H354.086V52.7822Z" fill="#2F2E41"/>
<path d="M402.656 33.1826H400.656V199.323H402.656V33.1826Z" fill="#2F2E41"/>
<g opacity="0.2">
<path d="M452.227 80.623H450.227V334.753H452.227V80.623Z" fill="black"/>
<path d="M502.375 141.322H500.375V357.462H502.375V141.322Z" fill="black"/>
<path d="M553.807 187.192H551.807V351.902H553.807V187.192Z" fill="black"/>
<path d="M660.945 209.463H658.945V364.773H660.945V209.463Z" fill="black"/>
<path d="M606.086 242.893H604.086V485.603H606.086V242.893Z" fill="black"/>
<path d="M716.375 151.183H714.375V367.613H716.375V151.183Z" fill="black"/>
<path d="M354.086 52.7822H352.086V218.922H354.086V52.7822Z" fill="black"/>
<path d="M402.656 33.1826H400.656V199.323H402.656V33.1826Z" fill="black"/>
</g>
<path d="M131.525 515.432C164.287 515.432 190.845 488.874 190.845 456.112C190.845 423.35 164.287 396.792 131.525 396.792C98.7636 396.792 72.2051 423.35 72.2051 456.112C72.2051 488.874 98.7636 515.432 131.525 515.432Z" fill="#00214D"/>
<path opacity="0.2" d="M190.846 456.112C190.845 469.942 186.013 483.337 177.184 493.982C168.356 504.627 156.087 511.853 142.496 514.412C152.617 508.414 161.002 499.884 166.826 489.662C172.651 479.44 175.713 467.877 175.713 456.112C175.713 444.347 172.651 432.785 166.826 422.563C161.002 412.341 152.617 403.811 142.496 397.812C156.088 400.37 168.358 407.596 177.187 418.242C186.015 428.887 190.847 442.283 190.846 456.112Z" fill="black"/>
<path d="M592.136 575.892C624.898 575.892 651.456 549.333 651.456 516.572C651.456 483.81 624.898 457.252 592.136 457.252C559.375 457.252 532.816 483.81 532.816 516.572C532.816 549.333 559.375 575.892 592.136 575.892Z" fill="#00214D"/>
<path opacity="0.2" d="M650.166 517.852C650.166 531.682 645.335 545.077 636.509 555.723C627.683 566.369 615.416 573.599 601.826 576.162C611.947 570.164 620.332 561.634 626.156 551.412C631.981 541.19 635.044 529.627 635.044 517.862C635.044 506.097 631.981 494.535 626.156 484.313C620.332 474.091 611.947 465.561 601.826 459.562C615.415 462.12 627.683 469.345 636.51 479.989C645.336 490.632 650.167 504.025 650.166 517.852Z" fill="black"/>
<path d="M117.826 170.542H116.826V383.682H117.826V170.542Z" fill="#2F2E41"/>
<g opacity="0.2">
<path d="M117.826 170.542H116.826V383.682H117.826V170.542Z" fill="black"/>
</g>
<path d="M209.016 99.9121H208.016V293.392H209.016V99.9121Z" fill="#2F2E41"/>
<g opacity="0.2">
<path d="M209.016 99.9121H208.016V293.392H209.016V99.9121Z" fill="black"/>
</g>
<path d="M259.875 45.0518H258.875V257.392H259.875V45.0518Z" fill="#2F2E41"/>
<g opacity="0.2">
<path d="M259.875 45.0518H258.875V257.392H259.875V45.0518Z" fill="black"/>
</g>
<path d="M309.016 16.8223H308.016V181.962H309.016V16.8223Z" fill="#2F2E41"/>
<g opacity="0.2">
<path d="M309.016 16.8223H308.016V181.962H309.016V16.8223Z" fill="black"/>
</g>
<path d="M466.185 119.542H436.275V300.402H466.185V119.542Z" fill="#00214D"/>
<path d="M516.326 174.822H486.416V324.822H516.326V174.822Z" fill="#00214D"/>
<path d="M567.756 235.683H537.846V329.183H567.756V235.683Z" fill="#00214D"/>
<path d="M674.896 248.562H644.986V342.062H674.896V248.562Z" fill="#00214D"/>
<path d="M620.045 272.542H590.135V446.112H620.045V272.542Z" fill="#00214D"/>
<path d="M730.326 181.962H700.416V342.062H730.326V181.962Z" fill="#00214D"/>
<path d="M368.045 116.252H338.135V187.692H368.045V116.252Z" fill="#00214D"/>
<path d="M416.615 59.1123H386.705V168.082H416.615V59.1123Z" fill="#00214D"/>
<g opacity="0.2">
<path d="M466.185 119.542H436.275V300.402H466.185V119.542Z" fill="white"/>
<path d="M516.324 174.822H486.414V324.822H516.324V174.822Z" fill="white"/>
<path d="M567.756 235.683H537.846V329.183H567.756V235.683Z" fill="white"/>
<path d="M674.894 248.562H644.984V342.062H674.894V248.562Z" fill="white"/>
<path d="M620.045 272.542H590.135V446.112H620.045V272.542Z" fill="white"/>
<path d="M730.324 181.962H700.414V342.062H730.324V181.962Z" fill="white"/>
<path d="M368.045 116.252H338.135V187.692H368.045V116.252Z" fill="white"/>
<path d="M416.615 59.1123H386.705V168.082H416.615V59.1123Z" fill="white"/>
</g>
<path d="M160.445 121.393H159.445V314.533H160.445V121.393Z" fill="#2F2E41"/>
<g opacity="0.2">
<path d="M160.445 121.393H159.445V314.533H160.445V121.393Z" fill="black"/>
</g>
<path d="M239.196 75.9123C241.282 69.4599 241.282 62.5146 239.196 56.0623L227.506 53.0623C227.506 53.1923 227.576 53.3223 227.606 53.4523C227.148 52.0141 226.604 50.6049 225.976 49.2323L232.506 38.4823C229.418 32.4663 224.522 27.57 218.506 24.4823L208.096 30.6123L208.466 30.8323C207.115 30.1304 205.723 29.5126 204.296 28.9823L201.296 16.7623C194.843 14.6821 187.899 14.6821 181.446 16.7623L178.446 28.4523L178.836 28.3523C177.399 28.8121 175.989 29.3563 174.616 29.9823L163.866 23.4523C157.852 26.5427 152.957 31.4383 149.866 37.4523L155.996 47.8723L156.216 47.4923C155.514 48.8429 154.896 50.2355 154.366 51.6623L142.146 54.6623C140.066 61.1154 140.066 68.0591 142.146 74.5123L153.836 77.5123C153.836 77.3823 153.776 77.2523 153.736 77.1223C154.194 78.5604 154.738 79.9696 155.366 81.3423L148.836 92.1023C151.927 98.1158 156.823 103.011 162.836 106.102L173.256 99.9723L172.876 99.7523C174.227 100.454 175.619 101.072 177.046 101.602L180.046 113.822C186.498 115.908 193.444 115.908 199.896 113.822L202.896 102.132L202.506 102.232C203.944 101.774 205.353 101.23 206.726 100.602L217.486 107.132C223.502 104.044 228.398 99.1478 231.486 93.1323L225.356 82.7223L225.136 83.0923C225.838 81.7416 226.456 80.349 226.986 78.9223L239.196 75.9123ZM190.636 83.4423C187.035 83.4442 183.515 82.3775 180.521 80.3773C177.527 78.3771 175.194 75.5334 173.818 72.2063C172.441 68.8792 172.083 65.2184 172.789 61.6876C173.494 58.1568 175.232 54.9148 177.782 52.3723C180.331 49.8298 183.578 48.1011 187.111 47.4052C190.643 46.7093 194.303 47.0775 197.626 48.4632C200.95 49.8489 203.787 52.1897 205.779 55.1891C207.771 58.1885 208.828 61.7117 208.816 65.3123C208.803 70.1252 206.882 74.7365 203.474 78.1352C200.066 81.5338 195.449 83.4423 190.636 83.4423Z" fill="#E6E7E8"/>
<path d="M135.746 28.3622C136.312 24.7833 135.738 21.117 134.106 17.8822L127.696 17.2522L127.786 17.4422C127.422 16.7202 127.018 16.0191 126.576 15.3422L129.136 9.13222C127.005 6.19971 124.008 4.0101 120.566 2.87222L115.566 6.97222L115.776 7.05222C115.007 6.79205 114.222 6.58161 113.426 6.42222L110.836 0.21222C107.257 -0.354048 103.591 0.219692 100.356 1.85222L99.6959 8.31222L99.8859 8.22222C99.1642 8.58666 98.4631 8.99061 97.7859 9.43222L91.5759 6.87222C88.6434 9.00297 86.4538 12.0006 85.3159 15.4422L89.4159 20.4422L89.4959 20.2322C89.2391 21.0023 89.0287 21.787 88.8659 22.5822L82.6959 25.1222C82.1309 28.7044 82.7045 32.3735 84.3359 35.6122L90.7659 36.2422L90.6759 36.0422C91.0358 36.7663 91.4399 37.4677 91.8859 38.1422L89.3259 44.3622C91.4553 47.2939 94.4537 49.4807 97.8959 50.6122L102.896 46.5222L102.686 46.4322C103.456 46.6923 104.24 46.906 105.036 47.0722L107.586 53.3122C111.168 53.8772 114.837 53.3036 118.076 51.6722L118.696 45.2122L118.496 45.3022C119.218 44.9385 119.919 44.5345 120.596 44.0922L126.816 46.6522C129.748 44.5229 131.934 41.5244 133.066 38.0822L128.976 33.0822C128.945 33.1505 128.918 33.2206 128.896 33.2922C129.147 32.5204 129.357 31.736 129.526 30.9422L135.746 28.3622ZM110.746 36.3622C108.847 36.6574 106.903 36.3829 105.16 35.5735C103.417 34.7641 101.952 33.4562 100.952 31.8149C99.9525 30.1736 99.4615 28.2728 99.5416 26.3526C99.6217 24.4323 100.269 22.5789 101.402 21.0266C102.535 19.4743 104.103 18.2928 105.908 17.6313C107.712 16.9699 109.672 16.8582 111.54 17.3104C113.408 17.7627 115.1 18.7585 116.402 20.1721C117.704 21.5857 118.558 23.3535 118.856 25.2522C119.237 27.8005 118.593 30.396 117.063 32.4695C115.533 34.5429 113.243 35.9249 110.696 36.3122L110.746 36.3622Z" fill="#E6E7E8"/>
<path d="M72.0757 107.432C72.8451 102.591 72.072 97.6297 69.8657 93.252L61.1657 92.392L61.2857 92.652C60.7942 91.6777 60.2467 90.7328 59.6457 89.822L63.1157 81.402C60.2281 77.4391 56.1714 74.4805 51.5157 72.942L44.7657 78.492L45.0557 78.602C44.01 78.2534 42.9449 77.9662 41.8657 77.742L38.3757 69.312C33.5331 68.5484 28.5731 69.3249 24.1957 71.532L23.3357 80.222L23.5957 80.112C22.6215 80.6001 21.6766 81.1443 20.7657 81.742L12.3457 78.312C8.3786 81.1912 5.41867 85.2462 3.88567 89.902L9.43566 96.662C9.43566 96.562 9.50566 96.472 9.54566 96.372C9.19367 97.4133 8.90645 98.4753 8.68566 99.552L0.285661 103.052C-0.477982 107.895 0.298558 112.855 2.50566 117.232L11.1957 118.092C11.1957 118.002 11.1157 117.912 11.0857 117.822C11.5656 118.8 12.1032 119.748 12.6957 120.662L9.22566 129.072C12.1098 133.038 16.1677 135.998 20.8257 137.532L27.5857 131.992L27.2957 131.882C28.3385 132.226 29.4002 132.51 30.4757 132.732L33.9757 141.132C38.8171 141.901 43.778 141.128 48.1557 138.922L49.0157 130.222L48.7457 130.342C49.7241 129.852 50.6724 129.305 51.5857 128.702L59.9957 132.172C63.9608 129.291 66.9202 125.237 68.4557 120.582L62.9157 113.822C62.9157 113.922 62.8357 114.012 62.8057 114.112C63.1497 113.069 63.4336 112.007 63.6557 110.932L72.0757 107.432ZM38.2157 118.232C35.6452 118.627 33.0155 118.251 30.6588 117.151C28.3021 116.052 26.3244 114.278 24.9757 112.054C23.627 109.831 22.9679 107.257 23.0816 104.659C23.1954 102.061 24.0769 99.5552 25.6148 97.4581C27.1527 95.3609 29.2778 93.7669 31.7216 92.8775C34.1653 91.9881 36.8179 91.8432 39.344 92.4612C41.8701 93.0792 44.1562 94.4323 45.9133 96.3495C47.6704 98.2667 48.8196 100.662 49.2157 103.232C49.7442 106.68 48.8825 110.196 46.8199 113.008C44.7573 115.821 41.6626 117.7 38.2157 118.232Z" fill="#E6E7E8"/>
<path d="M217.555 654.522C219.405 654.522 234.235 619.282 234.235 619.282L263.295 627.942L243.515 655.752L217.555 654.522Z" fill="#F9B499"/>
<path d="M475.822 620.884L460.51 622.946L465.222 657.94L480.534 655.878L475.822 620.884Z" fill="#A7A9AC"/>
<path d="M357.246 618.052L354.156 655.752H368.366L372.076 619.902L357.246 618.052Z" fill="#A7A9AC"/>
<path d="M417.196 634.122H401.746V658.232H417.196V634.122Z" fill="#A7A9AC"/>
<path d="M432.036 632.882H416.586V657.952H432.036V632.882Z" fill="#939598"/>
<path d="M423.696 641.542C465.172 641.542 498.796 626.32 498.796 607.542C498.796 588.764 465.172 573.542 423.696 573.542C382.219 573.542 348.596 588.764 348.596 607.542C348.596 626.32 382.219 641.542 423.696 641.542Z" fill="#BCBEC0"/>
<path d="M414.665 315.643H400.615V334.453H414.665V315.643Z" fill="#2F2E41"/>
<path d="M385.865 311.763L385.955 337.763C385.955 337.763 391.765 333.933 396.685 332.603V321.603C392.367 319.202 388.664 315.834 385.865 311.763Z" fill="#2F2E41"/>
<path d="M396.696 332.632C396.696 332.632 368.146 339.992 370.106 371.002L365.006 439.702L381.496 477.382C381.496 477.382 388.946 463.642 388.556 438.132L396.696 332.632Z" fill="#00214D"/>
<path opacity="0.2" d="M396.696 332.632C396.696 332.632 368.146 339.992 370.106 371.002L365.006 439.702L381.496 477.382C381.496 477.382 388.946 463.642 388.556 438.132L396.696 332.632Z" fill="black"/>
<path d="M436.695 282.882C437.235 282.882 447.615 283.662 447.495 283.882C447.199 285.91 447.019 287.953 446.955 290.002C447.015 290.782 447.075 296.362 446.715 296.482C446.355 296.602 436.395 297.622 436.635 296.722C436.875 295.822 436.695 282.882 436.695 282.882Z" fill="#2F2E41"/>
<path d="M396.696 332.632C396.696 332.632 356.086 394.192 377.036 421.772C377.036 421.772 400.036 448.852 400.536 465.192C400.586 467.032 459.277 470.302 471.027 455.492C471.027 455.492 470.516 431.492 477.666 423.822C477.666 423.822 456.217 359.452 491.967 338.002L482.777 331.402L459.277 307.862L396.696 332.632Z" fill="#00214D"/>
<mask id="mask0_341_460" style="mask-type:luminance" maskUnits="userSpaceOnUse" x="371" y="307" width="121" height="160">
<path d="M396.696 332.632C396.696 332.632 356.086 394.192 377.036 421.772C377.036 421.772 400.036 448.852 400.536 465.192C400.586 467.032 459.277 470.302 471.027 455.492C471.027 455.492 470.516 431.492 477.666 423.822C477.666 423.822 456.217 359.452 491.967 338.002L482.777 331.402L459.277 307.862L396.696 332.632Z" fill="white"/>
</mask>
<g mask="url(#mask0_341_460)">
<path opacity="0.2" d="M372.907 385.072C372.907 385.072 387.017 385.072 396.697 392.932C399.951 395.591 403.84 397.357 407.983 398.058C412.126 398.76 416.38 398.372 420.327 396.932C421.201 396.612 422.111 396.252 423.057 395.852C423.057 395.852 451.267 380.632 472.757 403.022C472.757 403.022 496.047 403.022 496.047 404.362C496.047 405.702 475.447 441.082 475.447 441.082L473.657 462.082L419.027 476.852L389.917 469.692L371.557 425.812C371.557 425.812 362.607 395.812 372.907 385.072Z" fill="white"/>
</g>
<path d="M408.695 325.482C408.695 325.482 397.965 348.482 406.395 348.732C406.395 348.732 409.465 351.542 418.915 338.002C418.915 338.002 422.465 346.382 428.815 350.212C430.623 351.265 432.709 351.743 434.795 351.582C436.882 351.421 438.87 350.629 440.495 349.312C441.471 348.545 442.406 347.727 443.295 346.862C447.952 342.152 451.037 336.115 452.125 329.582C454.255 317.842 456.955 293.342 442.285 293.882L408.695 325.482Z" fill="#E6E7E8"/>
<path d="M438.976 285.763C439.884 288.542 440.99 291.252 442.286 293.873C442.711 294.719 442.969 295.639 443.046 296.583C444.566 320.113 422.996 331.873 422.996 331.873C414.316 334.933 414.706 325.223 414.706 325.223L438.976 285.763Z" fill="#F7A48B"/>
<path d="M444.965 285.893C444.965 285.893 448.126 333.023 446.666 355.213C446.352 359.866 445.267 364.435 443.456 368.733C439.006 379.403 428.926 405.583 431.266 418.633C431.34 419.013 431.509 419.368 431.756 419.667C432.003 419.966 432.321 420.198 432.68 420.343C433.04 420.488 433.429 420.541 433.815 420.497C434.2 420.454 434.568 420.315 434.886 420.093C442.126 415.213 461.425 399.583 460.795 371.973C460.795 371.973 465.275 339.313 465.795 321.033L457.696 293.313L452.846 275.433C452.846 275.433 441.895 278.233 444.965 285.893Z" fill="#2F2E41"/>
<path opacity="0.2" d="M444.965 285.893C444.965 285.893 448.126 333.023 446.666 355.213C446.352 359.866 445.267 364.435 443.456 368.733C439.006 379.403 428.926 405.583 431.266 418.633C431.34 419.013 431.509 419.368 431.756 419.667C432.003 419.966 432.321 420.198 432.68 420.343C433.04 420.488 433.429 420.541 433.815 420.497C434.2 420.454 434.568 420.315 434.886 420.093C442.126 415.213 461.425 399.583 460.795 371.973C460.795 371.973 465.275 339.313 465.795 321.033L457.696 293.313L452.846 275.433C452.846 275.433 441.895 278.233 444.965 285.893Z" fill="black"/>
<path d="M396.697 321.652C396.697 321.652 396.697 341.832 392.867 348.982C392.867 348.982 364.007 396.492 387.247 417.182C387.247 417.182 386.247 387.042 394.147 372.482C394.147 372.482 405.147 354.342 402.827 324.212L403.827 318.082L396.697 321.652Z" fill="#2F2E41"/>
<path opacity="0.2" d="M396.697 321.652C396.697 321.652 396.697 341.832 392.867 348.982C392.867 348.982 364.007 396.492 387.247 417.182C387.247 417.182 386.247 387.042 394.147 372.482C394.147 372.482 405.147 354.342 402.827 324.212L403.827 318.082L396.697 321.652Z" fill="black"/>
<path d="M355.055 420.752L360.165 421.092L389.115 494.992H385.365L355.055 420.752Z" fill="#2F2E41"/>
<path d="M234.236 619.312L279.976 509.912C279.976 509.912 281.216 484.572 334.976 498.782L369.586 503.112L398.586 503.732L397.586 492.642L400.486 465.222C400.486 465.222 454.346 470.692 470.976 455.522L497.516 519.802C497.516 519.802 517.916 571.722 490.716 594.592C490.716 594.592 477.716 602.012 445.596 599.532L339.316 598.312L357.246 653.942H288.016L284.306 631.072C284.306 631.072 273.186 650.192 234.236 619.312Z" fill="#2F2E41"/>
<path opacity="0.2" d="M298.525 549.442C298.525 549.442 286.165 549.442 286.165 562.442L284.305 631.052L281.835 562.442C281.835 562.442 278.745 548.822 298.525 549.442Z" fill="black"/>
<path opacity="0.2" d="M339.315 598.273L330.045 576.643L346.735 598.273H339.315Z" fill="black"/>
<path opacity="0.2" d="M335.615 558.092L412.875 598.892L445.635 599.512L335.615 558.092Z" fill="black"/>
<path opacity="0.2" d="M428.105 492.312C428.105 492.312 479.625 498.172 492.605 507.452L483.335 483.962L435.745 485.812L428.105 492.312Z" fill="black"/>
<path opacity="0.2" d="M404.215 503.082L469.735 525.952L444.395 508.642L479.625 510.502L448.725 498.752L419.675 501.842L404.215 503.082Z" fill="black"/>
<path d="M414.659 325.194C431.489 322.272 442.197 302.995 438.576 282.138C434.954 261.281 418.375 246.742 401.544 249.664C384.714 252.586 374.006 271.863 377.627 292.72C381.249 313.577 397.828 328.116 414.659 325.194Z" fill="#F9B499"/>
<path d="M389.455 255.442C389.455 255.442 397.105 280.662 434.205 277.112L445.695 270.312C449.562 288.227 456.381 305.375 465.875 321.052L482.795 331.422C482.795 331.422 465.875 311.232 452.235 265.952L444.605 241.952C444.605 241.952 437.505 220.672 421.145 224.492C421.145 224.492 412.955 214.132 398.225 226.682C398.225 226.682 369.435 252.852 372.875 267.762C373.023 268.354 373.097 268.962 373.095 269.572C373.025 272.712 372.985 283.692 377.145 289.242C376.615 283.052 377.442 276.82 379.568 270.983C381.694 265.145 385.069 259.841 389.455 255.442Z" fill="#2F2E41"/>
<g opacity="0.2">
<path d="M389.465 255.022C389.52 254.078 389.729 253.149 390.085 252.272C390.424 251.388 390.818 250.526 391.265 249.692C392.196 248.046 393.263 246.48 394.455 245.012C396.873 242.108 399.551 239.43 402.455 237.012C403.925 235.842 405.365 234.622 406.885 233.512C408.405 232.402 409.885 231.262 411.495 230.282C413.105 229.302 414.635 228.212 416.255 227.282C417.875 226.352 419.505 225.402 421.155 224.502C418.075 226.662 414.955 228.722 411.935 230.932C408.915 233.142 405.935 235.402 403.095 237.792C400.254 240.19 397.582 242.779 395.095 245.542C393.857 246.929 392.733 248.414 391.735 249.982C390.657 251.498 389.886 253.21 389.465 255.022Z" fill="black"/>
</g>
<path d="M441.565 286.663C445.636 286.663 448.935 282.387 448.935 277.112C448.935 271.838 445.636 267.562 441.565 267.562C437.495 267.562 434.195 271.838 434.195 277.112C434.195 282.387 437.495 286.663 441.565 286.663Z" fill="#F9B499"/>
<path d="M261.746 494.652L234.266 423.312C234.141 422.988 234.097 422.638 234.138 422.292C234.178 421.947 234.302 421.617 234.499 421.33C234.696 421.044 234.96 420.809 235.268 420.648C235.576 420.486 235.919 420.402 236.266 420.402L355.056 420.732L385.366 494.972L261.746 494.652Z" fill="#00214D"/>
<path d="M261.746 494.652C261.746 494.652 264.476 502.482 271.286 502.822L419.426 503.822C419.426 503.822 422.826 502.822 421.426 494.622L389.076 494.962L261.746 494.652Z" fill="#00214D"/>
<path opacity="0.2" d="M261.746 494.652C261.746 494.652 264.476 502.482 271.286 502.822L419.426 503.822C419.426 503.822 422.826 502.822 421.426 494.622L389.076 494.962L261.746 494.652Z" fill="black"/>
<path d="M491.955 338.002C491.955 338.002 507.285 343.112 508.305 373.252L511.885 465.192C511.885 465.192 514.435 476.942 495.535 481.032C495.535 481.032 468.975 490.222 449.535 489.712L428.105 492.312C428.105 492.312 433.725 480.052 425.555 475.452L432.655 475.262C440.124 475.058 447.385 472.753 453.605 468.612C461.295 463.492 472.605 456.422 482.765 451.952C482.765 451.952 484.295 439.182 477.655 423.862C477.695 423.822 455.695 358.942 491.955 338.002Z" fill="#00214D"/>
<path opacity="0.2" d="M491.955 338.002C491.955 338.002 507.285 343.112 508.305 373.252L511.885 465.192C511.885 465.192 514.435 476.942 495.535 481.032C495.535 481.032 468.975 490.222 449.535 489.712L428.105 492.312C428.105 492.312 433.725 480.052 425.555 475.452L432.655 475.262C440.124 475.058 447.385 472.753 453.605 468.612C461.295 463.492 472.605 456.422 482.765 451.952C482.765 451.952 484.295 439.182 477.655 423.862C477.695 423.822 455.695 358.942 491.955 338.002Z" fill="black"/>
<path d="M428.116 476.842L406.976 460.652C406.546 460.316 406.071 460.04 405.566 459.832C402.446 458.562 390.896 454.512 386.906 462.492C386.906 462.492 383.176 469.292 386.656 469.292C386.656 469.292 389.546 468.292 392.796 464.292C393.328 463.621 394.007 463.08 394.78 462.711C395.553 462.342 396.4 462.154 397.256 462.162C398.719 462.124 400.174 462.393 401.526 462.952C401.526 462.952 403.426 465.482 399.306 466.742C399.306 466.742 383.806 473.382 391.406 480.972C391.293 481.314 391.256 481.677 391.299 482.035C391.342 482.393 391.463 482.737 391.654 483.043C391.845 483.348 392.101 483.608 392.404 483.803C392.707 483.998 393.049 484.125 393.406 484.172C394.106 484.3 394.824 484.276 395.514 484.104C396.204 483.931 396.849 483.614 397.406 483.172C399.086 481.902 402.126 480.122 403.466 482.572C403.466 482.572 395.686 487.012 398.086 490.432C398.279 490.713 398.557 490.926 398.879 491.039C399.2 491.152 399.55 491.161 399.876 491.062C400.716 490.802 401.966 490.062 403.486 487.822C403.671 487.567 403.944 487.389 404.251 487.321C404.559 487.253 404.881 487.299 405.156 487.452C406.266 488.062 408.956 488.582 415.476 486.992C415.476 486.992 421.786 495.062 429.216 492.512C430.108 492.181 430.896 491.619 431.499 490.882C432.102 490.146 432.498 489.262 432.646 488.322C433.176 485.012 433.206 479.562 428.116 476.842Z" fill="#F9B499"/>
<path d="M393.586 479.462C394.533 477.704 395.949 476.243 397.678 475.244C399.407 474.244 401.38 473.745 403.376 473.802" stroke="#F7A48B" stroke-width="0.5" stroke-miterlimit="10"/>
<path d="M132.285 206.482H102.375V349.802H132.285V206.482Z" fill="#00214D"/>
<path opacity="0.2" d="M132.285 206.482H102.375V349.802H132.285V206.482Z" fill="white"/>
<path d="M174.896 161.393H144.986V257.393H174.896V161.393Z" fill="#00214D"/>
<path opacity="0.2" d="M174.896 161.393H144.986V257.393H174.896V161.393Z" fill="white"/>
<path d="M223.476 135.862H193.566V277.112H223.476V135.862Z" fill="#00214D"/>
<path opacity="0.2" d="M223.476 135.862H193.566V277.112H223.476V135.862Z" fill="white"/>
<path d="M274.326 81.002H244.416V222.252H274.326V81.002Z" fill="#00214D"/>
<path opacity="0.2" d="M274.326 81.002H244.416V222.252H274.326V81.002Z" fill="white"/>
<path d="M323.476 41.5723H293.566V151.222H323.476V41.5723Z" fill="#00214D"/>
<path opacity="0.2" d="M323.476 41.5723H293.566V151.222H323.476V41.5723Z" fill="white"/>
<path d="M102.295 442.312C104.237 441.95 106.209 441.776 108.185 441.792C111.405 441.792 113.475 442.342 115.035 443.602C115.711 444.115 116.253 444.784 116.614 445.552C116.974 446.32 117.143 447.164 117.105 448.012C117.064 449.253 116.635 450.451 115.878 451.435C115.121 452.42 114.074 453.143 112.885 453.502V453.572C114.331 453.868 115.631 454.651 116.568 455.79C117.506 456.93 118.024 458.356 118.035 459.832C118.05 460.766 117.87 461.694 117.507 462.554C117.144 463.415 116.605 464.191 115.925 464.832C114.185 466.432 111.365 467.172 107.295 467.172C105.623 467.185 103.953 467.085 102.295 466.872V442.312ZM105.515 452.532H108.445C111.845 452.532 113.845 450.752 113.845 448.352C113.845 445.422 111.625 444.272 108.365 444.272C107.41 444.248 106.455 444.322 105.515 444.492V452.532ZM105.515 464.532C106.41 464.653 107.312 464.703 108.215 464.682C111.555 464.682 114.625 463.462 114.625 459.822C114.625 456.422 111.705 455.012 108.185 455.012H105.515V464.532Z" fill="white"/>
<path d="M125.595 442.013V456.803C125.595 462.393 128.075 464.803 131.415 464.803C135.115 464.803 137.485 462.363 137.485 456.803V442.013H140.745V456.573C140.745 464.243 136.745 467.393 131.295 467.393C126.185 467.393 122.295 464.473 122.295 456.723V442.013H125.595Z" fill="white"/>
<path d="M151.906 466.983V456.393L144.006 442.013H147.696L151.216 448.903C152.216 450.793 152.926 452.313 153.696 454.053H153.776C154.476 452.433 155.326 450.793 156.296 448.903L159.886 442.013H163.556L155.166 456.313V466.943L151.906 466.983Z" fill="white"/>
<path d="M557.485 524.803C559.232 525.852 561.228 526.415 563.265 526.433C566.565 526.433 568.485 524.693 568.485 522.173C568.485 519.843 567.155 518.513 563.785 517.173C559.705 515.723 557.185 513.613 557.185 510.093C557.185 506.203 560.415 503.313 565.265 503.313C567.18 503.25 569.079 503.673 570.785 504.543L569.895 507.173C568.44 506.385 566.81 505.976 565.155 505.983C561.745 505.983 560.445 507.983 560.445 509.723C560.445 512.063 561.965 513.203 565.445 514.543C569.665 516.173 571.815 518.213 571.815 521.873C571.815 525.733 568.965 529.063 563.075 529.063C560.851 529.103 558.653 528.569 556.695 527.513L557.485 524.803Z" fill="white"/>
<path d="M589.126 517.023H579.416V526.023H590.236V528.723H576.236V503.723H589.696V506.433H579.416V514.323H589.126V517.023Z" fill="white"/>
<path d="M594.426 503.763H597.696V526.033H608.366V528.733H594.426V503.763Z" fill="white"/>
<path d="M611.916 503.763H615.136V526.033H625.806V528.733H611.916V503.763Z" fill="white"/>
</svg>
