<svg width="51" height="46" viewBox="0 0 51 46" fill="none" xmlns="http://www.w3.org/2000/svg">
<path d="M50.9224 1.65289C50.8997 1.30633 50.7795 0.974403 50.5767 0.698487C50.374 0.422572 50.0977 0.214878 49.7822 0.101305C49.4668 -0.0122684 49.1263 -0.0266965 48.803 0.05982C48.4798 0.146336 48.1882 0.329969 47.9645 0.587821C46.8529 1.88556 45.4059 2.82282 43.7962 3.28764C41.6257 1.1728 38.7628 -0.00255419 35.7895 0.000441736C34.2094 0.00137082 32.6449 0.326195 31.1854 0.956368C29.726 1.58654 28.4 2.50972 27.2834 3.6732C26.1667 4.83668 25.2812 6.21767 24.6773 7.73732C24.0735 9.25698 23.7631 10.8855 23.764 12.53V14.0869C13.5949 13.2695 8.16185 5.2267 6.68969 1.15043C6.57382 0.8274 6.36977 0.546649 6.10263 0.342694C5.8355 0.138738 5.51692 0.0204685 5.18606 0.00242468C4.85521 -0.0156191 4.5265 0.0673495 4.24034 0.24113C3.95419 0.414911 3.72306 0.671929 3.57538 0.980586C0.0156827 8.39713 -0.531701 15.5943 2.05563 21.7228C4.31996 27.0906 8.87583 31.3651 15.3357 34.1993C12.4015 36.3613 7.46147 38.9231 1.70204 38.9231C1.33702 38.9227 0.981552 39.0445 0.68822 39.2706C0.394889 39.4967 0.179271 39.815 0.0732658 40.1786C-0.0327399 40.5421 -0.0235037 40.9314 0.099608 41.2891C0.22272 41.6467 0.453168 41.9536 0.756862 42.1643C6.28171 46 12.0717 46 17.4504 46H17.6136C34.1405 46 47.5327 32.0374 47.5327 14.8194V13.1245C48.7669 11.8153 49.7291 10.4813 50.3207 8.75097C50.9768 6.81899 51.1094 4.58271 50.9224 1.65289Z" fill="#00214D"/>
</svg>
