<svg width="51" height="42" viewBox="0 0 51 42" fill="none" xmlns="http://www.w3.org/2000/svg">
<path d="M50.6723 9.27365C50.6723 4.35191 47.3748 0.392645 43.3003 0.392645C37.7812 0.109372 32.1526 0 26.4004 0H24.6072C18.869 0 13.2304 0.109372 7.71134 0.393739C3.64677 0.393739 0.349283 4.37488 0.349283 9.29662C0.100228 13.1892 -0.00537151 17.0828 0.000605809 20.9765C-0.00935639 24.8701 0.103548 28.7674 0.33932 32.6683C0.33932 37.5901 3.63681 41.5821 7.70138 41.5821C13.4994 41.8775 19.4468 42.0087 25.4939 41.9978C31.5509 42.0196 37.4817 41.8811 43.2863 41.5821C47.3609 41.5821 50.6584 37.5901 50.6584 32.6683C50.8975 28.7638 51.007 24.8701 50.9971 20.9655C51.0197 17.0719 50.9114 13.1746 50.6723 9.27365ZM20.6223 31.7059V10.2143L35.0675 20.9546L20.6223 31.7059Z" fill="#00214D"/>
</svg>
