 <svg width="19" height="14" viewBox="0 0 19 14" fill="none" xmlns="http://www.w3.org/2000/svg">
                                        <path d="M0.838146 13.1836C0.586062 12.9697 0.460021 12.6975 0.460021 12.3669C0.460021 12.0364 0.586062 11.7641 0.838146 11.5503L6.16627 7.00026L0.838146 2.45026C0.586062 2.23637 0.454063 1.9692 0.442146 1.64876C0.43023 1.32832 0.562229 1.05104 0.838146 0.816927C1.09023 0.603038 1.41106 0.496094 1.80065 0.496094C2.19023 0.496094 2.51106 0.603038 2.76315 0.816927L9.08815 6.18359C9.22565 6.30026 9.32327 6.42665 9.38102 6.56276C9.43877 6.69887 9.46719 6.8447 9.46627 7.00026C9.46627 7.15582 9.43785 7.30165 9.38102 7.43776C9.32419 7.57387 9.22656 7.70026 9.08815 7.81693L2.76315 13.1836C2.51106 13.3975 2.19619 13.5095 1.81852 13.5196C1.44085 13.5297 1.11406 13.4177 0.838146 13.1836ZM9.91315 13.1836C9.66106 12.9697 9.53502 12.6975 9.53502 12.3669C9.53502 12.0364 9.66106 11.7641 9.91315 11.5503L15.2413 7.00026L9.91315 2.45026C9.66106 2.23637 9.52906 1.9692 9.51715 1.64876C9.50523 1.32832 9.63723 1.05104 9.91315 0.816927C10.1652 0.603038 10.4861 0.496094 10.8756 0.496094C11.2652 0.496094 11.5861 0.603038 11.8381 0.816927L18.1631 6.18359C18.3006 6.30026 18.3983 6.42665 18.456 6.56276C18.5138 6.69887 18.5422 6.8447 18.5413 7.00026C18.5413 7.15582 18.5124 7.30165 18.4546 7.43776C18.3969 7.57387 18.2997 7.70026 18.1631 7.81693L11.8381 13.1836C11.5861 13.3975 11.2712 13.5095 10.8935 13.5196C10.5159 13.5297 10.1891 13.4177 9.91315 13.1836Z" fill="#00214D" />
                                    </svg>