<svg width="45" height="46" viewBox="0 0 45 46" fill="none" xmlns="http://www.w3.org/2000/svg">
<path d="M4.43478 9.31412L6.19565 15.3002L4.43478 21.2603L10.9891 24.4876L15 29.719L22.5 28.3135L30 29.719L34.0109 24.4876L40.5652 21.2603L38.8043 15.3002L40.5652 9.31412L34.0435 6.08682L30 0.855469L22.5 2.28693L15.0326 0.881495L10.9565 6.08682L4.43478 9.31412ZM22.5326 25.815C19.0733 25.815 15.7556 24.7182 13.3095 22.7658C10.8634 20.8134 9.48913 18.1654 9.48913 15.4043C9.48913 12.6433 10.8634 9.99528 13.3095 8.0429C15.7556 6.09053 19.0733 4.9937 22.5326 4.9937C29.7065 4.9937 35.5435 9.65246 35.5435 15.3783C35.5435 21.1562 29.7065 25.815 22.5326 25.815ZM22.4674 23.2123C17.0543 23.2123 12.7174 19.7248 12.7174 15.4043C12.7174 11.11 17.0543 7.59636 22.4674 7.59636C27.8804 7.59636 32.2826 11.11 32.2826 15.4043C32.2826 19.7248 27.8804 23.2123 22.4674 23.2123ZM34.9891 26.0752L30.8152 31.9052L24.0326 30.682L32.2826 45.8555L36.8478 40.1296H45L34.9891 26.0752ZM9.88044 26.2574L13.9565 32.1134L20.9022 30.7861L12.7174 45.8555L8.15217 40.1296H0L9.88044 26.2574Z" fill="#00214D"/>
</svg>
