<svg width="46" height="46" viewBox="0 0 46 46" fill="none" xmlns="http://www.w3.org/2000/svg">
<path d="M23.3988 0.579141C24.1832 0.579141 24.9556 0.626575 25.6741 0.738184C26.3817 0.824604 27.0799 0.968381 27.7607 1.16788C28.4433 1.3604 29.1109 1.60036 29.7785 1.90171C30.4281 2.1891 31.0957 2.54067 31.7633 2.92293C32.892 3.59258 34.0026 4.13389 35.1343 4.56637C37.362 5.39739 39.7178 5.89189 42.1127 6.03124C43.3281 6.11216 44.5765 6.15959 45.8758 6.15959V17.3205C45.8758 19.4411 45.5854 21.45 45.0046 23.3641C44.4467 25.2509 43.654 27.0704 42.6426 28.7855C41.6354 30.4982 40.4437 32.1109 39.086 33.5987C37.7075 35.1202 36.2148 36.5486 34.6194 37.8733C33.0028 39.2018 31.3001 40.4365 29.521 41.5703C27.7428 42.7199 25.9465 43.7885 24.1503 44.7595L23.4318 45.1585L22.7133 44.7595C20.8667 43.7632 19.0631 42.6993 17.3066 41.5703C15.5175 40.4493 13.814 39.214 12.2083 37.8733C10.6138 36.5486 9.12214 35.1201 7.74462 33.5987C6.39053 32.1046 5.19353 30.4929 4.1701 28.7855C3.17597 27.0628 2.38405 25.2451 1.80804 23.3641C1.22358 21.3963 0.935417 19.3623 0.951836 17.3205V6.15959C2.25411 6.15959 3.5025 6.11216 4.71795 6.03124C5.91443 5.95378 7.10316 5.79431 8.27451 5.55411C9.42111 5.31415 10.5677 4.99607 11.6963 4.56637C12.8675 4.12584 13.9904 3.58108 15.0493 2.93967C16.3666 2.14167 17.7018 1.55293 19.019 1.16509C20.4376 0.759757 21.9152 0.562089 23.3988 0.579141ZM42.8641 8.90238C40.5979 8.7999 38.3529 8.44678 36.1761 7.85046C34.0109 7.24849 31.9485 6.36256 30.0509 5.21928C29.0667 4.61714 27.9977 4.14484 26.8746 3.8158C25.7526 3.49977 24.5859 3.34361 23.4138 3.35262C22.2331 3.34551 21.0577 3.5016 19.9261 3.8158C18.8013 4.13414 17.7337 4.60718 16.7587 5.21928C14.8579 6.36879 12.7902 7.25861 10.6186 7.86162C8.49604 8.43641 6.27469 8.78798 3.94557 8.91633V17.3344C3.94557 19.1844 4.20303 20.9534 4.71795 22.6582C5.24253 24.3482 5.96539 25.9792 6.87344 27.5215C7.79236 29.08 8.87545 30.5493 10.1067 31.9078C11.3551 33.2778 12.6873 34.5529 14.1243 35.7639C15.5613 36.9776 17.0671 38.0937 18.6418 39.1289C20.2315 40.1668 21.8241 41.1071 23.4138 41.9665C25.0416 41.0833 26.6286 40.1366 28.1709 39.1289C29.756 38.097 31.2698 36.9731 32.7034 35.7639C34.1404 34.5529 35.4756 33.2778 36.724 31.9078C37.9553 30.5494 39.0384 29.0801 39.9572 27.5215C40.8612 25.9811 41.5733 24.3494 42.0797 22.6582C42.6103 20.9272 42.8744 19.1347 42.8641 17.3344V8.90238Z" fill="#00214D"/>
<path fill-rule="evenodd" clip-rule="evenodd" d="M34.5595 11.4893L33.2423 10.4346L32.0268 10.5322L18.9741 24.8963L14.5284 18.981L13.3309 18.7913L11.9448 19.7149L11.7383 20.8309L17.4533 28.4371L18.103 28.7719L19.4711 28.85L20.1716 28.5654L34.6463 12.6193L34.5595 11.4893Z" fill="#00214D"/>
</svg>
