<svg width="80" height="80" viewBox="0 0 80 80" fill="none" xmlns="http://www.w3.org/2000/svg">
<rect width="80" height="80" rx="40" fill="#00214D"/>
<path d="M40.13 65.2427C25.8582 65.2427 14.2401 53.6245 14.2401 39.3527C14.2401 25.0808 25.8582 13.4627 40.13 13.4627C54.4019 13.4627 66.02 25.0808 66.02 39.3527C66.02 53.6245 54.4019 65.2427 40.13 65.2427ZM40.13 71.7151C57.9941 71.7151 72.4925 57.2168 72.4925 39.3527C72.4925 21.4886 57.9941 6.99023 40.13 6.99023C22.266 6.99023 7.76758 21.4886 7.76758 39.3527C7.76758 57.2168 22.266 71.7151 40.13 71.7151ZM36.8938 39.3527V52.2977H43.3663V39.3527H53.075L40.13 26.4077L27.1851 39.3527H36.8938Z" fill="#0083CF"/>
</svg>
