<svg width="45" height="46" viewBox="0 0 45 46" fill="none" xmlns="http://www.w3.org/2000/svg">
<path d="M23.8479 26.2017C23.2258 24.3524 23.6406 22.914 23.8479 22.0921C23.6406 21.2702 23.2258 20.0373 23.6406 18.188C24.2627 16.5442 25.2995 15.7223 25.9217 15.1058C26.129 14.2839 26.5438 13.051 28.2028 11.8181C29.6544 10.7907 31.106 10.7907 31.9355 10.7907C32.1429 10.5853 32.5576 10.3798 32.9723 10.1743V4.21541C33.1797 2.36609 31.7281 0.927734 29.8618 0.927734H3.31797C1.45161 0.927734 0 2.36609 0 4.21541V24.3524C0 26.2017 1.45161 27.6401 3.31797 27.6401H24.6774C24.2627 27.2291 24.0553 26.8181 23.8479 26.2017ZM4.14747 9.14691V5.03732L16.5899 11.2017L29.0323 5.03732V9.14691L16.5899 15.3113L4.14747 9.14691ZM44.7926 19.2154C44.3779 17.9825 43.341 17.777 42.7189 17.1606C42.3041 16.5442 42.3041 15.3113 41.2673 14.6949C40.2304 13.8729 39.1935 14.2839 38.3641 14.0784C37.5346 13.8729 36.9124 12.8455 35.6682 12.8455C34.424 12.8455 33.8018 13.6675 32.9723 14.0784C32.1429 14.2839 31.106 13.8729 30.0691 14.6949C29.0323 15.3113 29.2396 16.3387 28.6175 17.1606C27.9954 17.777 26.9585 18.188 26.5438 19.2154C26.129 20.4483 26.9585 21.2702 26.9585 22.0921C26.9585 22.914 26.129 23.736 26.5438 24.9688C26.9585 26.2017 27.9954 26.4072 28.6175 27.0236C29.0323 27.6401 29.0323 28.8729 30.0691 29.4894C31.106 30.3113 32.1429 29.9003 32.9723 30.1058C33.8018 30.3113 34.424 31.3387 35.6682 31.3387C36.9124 31.3387 37.5346 30.5168 38.3641 30.1058C39.1935 29.9003 40.2304 30.3113 41.2673 29.4894C42.3041 28.6675 42.3041 27.6401 42.7189 27.0236C43.341 26.4072 44.3779 25.9962 44.7926 24.9688C45.2074 23.736 44.3779 22.914 44.3779 22.0921C44.3779 21.2702 45.2074 20.4483 44.7926 19.2154ZM35.6682 28.462C32.1429 28.462 29.447 25.5853 29.447 22.2976C29.447 19.0099 32.3502 16.1332 35.6682 16.1332C38.9862 16.1332 41.8894 19.0099 41.8894 22.2976C41.8894 25.5853 39.1936 28.462 35.6682 28.462ZM38.7788 22.0921C38.7788 23.736 37.3272 25.1743 35.6682 25.1743C34.0092 25.1743 32.5576 23.736 32.5576 22.0921C32.5576 20.4483 34.0092 19.0099 35.6682 19.0099C37.3272 19.0099 38.7788 20.4483 38.7788 22.0921ZM38.3641 34.0099L37.3272 39.5579L36.0829 45.9277L31.9355 42.0236L26.9585 44.2839L29.0323 32.5716C29.8618 32.9825 30.8986 33.188 31.9355 33.188C32.5576 33.599 33.3871 34.0099 34.0092 34.2154C34.424 34.4209 35.0461 34.4209 35.6682 34.4209C36.7051 34.6264 37.5346 34.4209 38.3641 34.0099ZM45 38.9414L40.8525 37.5031L41.682 32.9825L42.9263 32.3661L43.1336 32.1606L45 38.9414Z" fill="#00214D"/>
</svg>
